<svg id="Capa_1" enable-background="new 0 0 512.003 512.003" height="512" viewBox="0 0 512.003 512.003" width="512" xmlns="http://www.w3.org/2000/svg"><g><path d="m473.968 405.955h-435.934v-81.905c0-18.941 15.355-34.297 34.297-34.297h367.341c18.941 0 34.297 15.355 34.297 34.297v81.905z" fill="#02c7dd"/><path d="m439.672 289.753h-19.444c18.941 0 34.297 15.355 34.297 34.297v81.905h19.444v-81.905c-.001-18.942-15.356-34.297-34.297-34.297z" fill="#07b2cd"/><path d="m277.85 372.787h-178.945c-13.457 0-24.366-10.909-24.366-24.366 0-13.457 10.909-24.366 24.366-24.366h178.945c13.457 0 24.366 10.909 24.366 24.366 0 13.457-10.909 24.366-24.366 24.366z" fill="#edf5fa"/><path d="m277.85 324.055h-23.016c13.457 0 24.366 10.909 24.366 24.366 0 13.457-10.909 24.366-24.366 24.366h23.016c13.457 0 24.366-10.909 24.366-24.366 0-13.457-10.909-24.366-24.366-24.366z" fill="#d0e7f2"/><circle cx="361.309" cy="346.677" fill="#00f2a6" r="26.11"/><path d="m361.309 320.568c-4.347 0-8.442 1.068-12.047 2.947 8.355 4.354 14.063 13.089 14.063 23.163s-5.708 18.808-14.063 23.163c3.605 1.879 7.7 2.947 12.047 2.947 14.42 0 26.11-11.69 26.11-26.11s-11.691-26.11-26.11-26.11z" fill="#05e39c"/><path d="m435.865 260.951h-235.122c-5.105 0-10.066 1.686-14.114 4.796l-29.333 33.107c-4.303 4.856-12.327 1.813-12.327-4.675v-140.666c0-6.449 5.228-11.676 11.676-11.676h279.22c6.449 0 11.676 5.228 11.676 11.676v95.761c0 6.449-5.227 11.677-11.676 11.677z" fill="#d0e7f2"/><g fill="#b7d9eb"><path d="m165.773 265.747-20.804 23.48v4.951c0 6.488 8.024 9.531 12.327 4.675l29.333-33.107c4.048-3.11 9.01-4.796 14.114-4.796h-20.856c-5.104.001-10.066 1.687-14.114 4.797z"/><path d="m435.865 141.837h-20.855c6.449 0 11.676 5.228 11.676 11.676v95.761c0 6.448-5.228 11.676-11.676 11.676h20.856c6.448 0 11.676-5.228 11.676-11.676v-95.761c-.001-6.448-5.228-11.676-11.677-11.676z"/></g><g><path d="m504.508 429.676c-2.627 0-5.176-1.382-6.551-3.838-4.277-7.639-12.372-12.384-21.126-12.384h-441.66c-8.754 0-16.849 4.745-21.126 12.384-2.022 3.615-6.591 4.907-10.208 2.88-3.614-2.023-4.904-6.594-2.88-10.208 6.926-12.371 20.036-20.056 34.214-20.056h441.66c14.178 0 27.288 7.685 34.214 20.056 2.024 3.614.734 8.185-2.88 10.208-1.159.65-2.416.958-3.657.958z" fill="#d0e7f2"/></g><g><path d="m419.403 371.909c-1.919 0-3.839-.732-5.303-2.197-2.929-2.929-2.929-7.678 0-10.606l11.254-11.254-11.254-11.254c-2.929-2.929-2.929-7.678 0-10.606 2.929-2.929 7.678-2.929 10.606 0l16.557 16.557c2.929 2.929 2.929 7.678 0 10.606l-16.557 16.557c-1.464 1.465-3.383 2.197-5.303 2.197z" fill="#edf5fa"/></g><g><g><g><path d="m122.114 125.921c-1.919 0-3.839-.732-5.303-2.197l-16.775-16.775c-2.929-2.929-2.929-7.678 0-10.606 2.929-2.929 7.678-2.929 10.606 0l16.775 16.775c2.929 2.929 2.929 7.678 0 10.606-1.464 1.465-3.384 2.197-5.303 2.197z" fill="#6cf5c2"/></g></g><g><g><path d="m112.774 150.038h-17.56c-4.142 0-7.5-3.358-7.5-7.5s3.358-7.5 7.5-7.5h17.561c4.142 0 7.5 3.358 7.5 7.5s-3.359 7.5-7.501 7.5z" fill="#6cf5c2"/></g></g><g><g><path d="m144.969 115.886c-4.142 0-7.5-3.358-7.5-7.5v-18.561c0-4.142 3.358-7.5 7.5-7.5s7.5 3.358 7.5 7.5v18.561c0 4.142-3.358 7.5-7.5 7.5z" fill="#6cf5c2"/></g></g></g><g><g><path d="m190.126 236.532c-3.713 0-7.035-2.342-8.279-5.845-.122-.344-.219-.697-.29-1.055l-11.105-56.141c-.804-4.063 1.839-8.009 5.902-8.813 4.065-.805 8.009 1.839 8.813 5.902l6.296 31.831 10.056-32.489c1.225-3.957 5.426-6.171 9.382-4.947s6.172 5.425 4.947 9.382l-17.339 56.02c-.02.065-.042.131-.063.196-1.203 3.538-4.522 5.933-8.259 5.958-.021.001-.041.001-.061.001z" fill="#017297"/></g><g><path d="m227.19 236.532c-3.713 0-7.035-2.342-8.279-5.845-.036-.1-.069-.201-.1-.303l-17.295-56.141c-1.22-3.958 1.001-8.156 4.959-9.375s8.157 1.001 9.375 4.959l10.036 32.578 6.315-31.729c.809-4.063 4.755-6.699 8.82-5.892 4.063.809 6.7 4.757 5.892 8.82l-11.149 56.02c-.064.322-.149.639-.255.95-1.203 3.538-4.522 5.933-8.259 5.958-.019 0-.04 0-.06 0z" fill="#017297"/></g></g><g><g><path d="m277.111 236.532c-3.713 0-7.035-2.342-8.279-5.845-.122-.344-.219-.697-.29-1.055l-11.105-56.141c-.804-4.063 1.839-8.009 5.902-8.813 4.064-.805 8.009 1.839 8.813 5.902l6.296 31.831 10.056-32.489c1.225-3.957 5.426-6.171 9.382-4.947s6.171 5.425 4.947 9.382l-17.339 56.02c-.02.065-.042.131-.063.196-1.203 3.538-4.522 5.933-8.259 5.958-.021.001-.041.001-.061.001z" fill="#017297"/></g><g><path d="m314.176 236.532c-3.713 0-7.035-2.342-8.279-5.845-.036-.1-.069-.201-.1-.303l-17.295-56.141c-1.22-3.958 1.001-8.156 4.959-9.375s8.157 1.001 9.375 4.959l10.037 32.578 6.314-31.729c.809-4.063 4.757-6.699 8.82-5.892 4.063.809 6.7 4.757 5.892 8.82l-11.149 56.02c-.064.322-.149.639-.255.95-1.203 3.538-4.522 5.933-8.259 5.958-.02 0-.04 0-.06 0z" fill="#017297"/></g></g><g><g><path d="m362.253 236.532c-3.713 0-7.035-2.342-8.279-5.845-.122-.344-.219-.697-.29-1.055l-11.105-56.141c-.804-4.063 1.839-8.009 5.902-8.813 4.064-.805 8.009 1.839 8.813 5.902l6.296 31.831 10.056-32.489c1.225-3.957 5.427-6.171 9.382-4.947 3.957 1.225 6.171 5.425 4.947 9.382l-17.339 56.02c-.02.065-.042.131-.063.196-1.203 3.538-4.522 5.933-8.259 5.958-.02.001-.041.001-.061.001z" fill="#017297"/></g><g><path d="m399.318 236.532c-3.712 0-7.033-2.341-8.279-5.842-.036-.101-.07-.203-.101-.306l-17.295-56.141c-1.22-3.958 1.001-8.156 4.959-9.375s8.157 1.001 9.375 4.959l10.036 32.578 6.315-31.729c.809-4.063 4.758-6.699 8.82-5.892 4.063.809 6.7 4.757 5.892 8.82l-11.149 56.02c-.064.322-.149.639-.255.95-1.203 3.538-4.521 5.932-8.257 5.958-.019 0-.04 0-.061 0z" fill="#017297"/></g></g><g><path d="m164.784 356.177h-63.28c-4.142 0-7.5-3.358-7.5-7.5s3.358-7.5 7.5-7.5h63.28c4.142 0 7.5 3.358 7.5 7.5s-3.358 7.5-7.5 7.5z" fill="#d0e7f2"/></g></g></svg>