<svg height="512pt" viewBox="0 0 512 512.00038" width="512pt" xmlns="http://www.w3.org/2000/svg" xmlns:xlink="http://www.w3.org/1999/xlink"><linearGradient id="a" gradientUnits="userSpaceOnUse" x1="169.9940010834" x2="299.4934135904" y1="71.98622701" y2="349.0548448864"><stop offset="0" stop-color="#00c3ff"/><stop offset="1" stop-color="#00b0ed"/></linearGradient><linearGradient id="b"><stop offset="0" stop-color="#00b0ed" stop-opacity="0"/><stop offset="1" stop-color="#00a2ce"/></linearGradient><linearGradient id="c" gradientUnits="userSpaceOnUse" x1="364.2825237824" x2="-379.5864327114" xlink:href="#b" y1="314.0868361356" y2="-84.9521808166"/><linearGradient id="d" gradientUnits="userSpaceOnUse" x1="256.0003" x2="256.0003" xlink:href="#b" y1="437.383215389" y2="504.4720097064"/><linearGradient id="e" gradientUnits="userSpaceOnUse" x1="543.121992" x2="293.3409780056" xlink:href="#b" y1="543.121802" y2="293.3408883978"/><path d="m420.421875 503.234375c-109.503906 11.6875-219.339844 11.6875-328.84375 0-43.664063-4.660156-78.152344-39.148437-82.8125-82.816406-11.6875-109.503907-11.6875-219.335938 0-328.839844 4.660156-43.664063 39.148437-78.152344 82.8125-82.8125 109.503906-11.6875 219.335937-11.6875 328.839844 0 43.667969 4.660156 78.15625 39.148437 82.816406 82.8125 11.6875 109.503906 11.6875 219.335937 0 328.839844-4.660156 43.667969-39.144531 78.15625-82.8125 82.816406zm0 0" fill="url(#a)"/><path d="m475.386719 110.097656c-4.132813-38.746094-34.734375-69.351562-73.484375-73.488281-97.171875-10.367187-194.632813-10.367187-291.804688 0-38.746094 4.136719-69.351562 34.742187-73.488281 73.488281-10.367187 97.171875-10.367187 194.632813 0 291.800782 4.136719 38.75 34.742187 69.355468 73.488281 73.488281 97.171875 10.371093 194.632813 10.371093 291.800782 0 38.75-4.132813 69.355468-34.738281 73.488281-73.488281 10.371093-97.167969 10.371093-194.628907 0-291.800782zm0 0" fill="url(#c)"/><path d="m7.671875 409.804688c.351563 3.539062.714844 7.078124 1.09375 10.617187 4.660156 43.664063 39.148437 78.152344 82.816406 82.8125 109.503907 11.6875 219.335938 11.6875 328.839844 0 43.667969-4.660156 78.152344-39.148437 82.8125-82.8125.378906-3.539063.742187-7.078125 1.097656-10.617187zm0 0" fill="url(#d)"/><path d="m361.902344 155.1875c-26.632813-27.96875-64.230469-45.402344-105.902344-45.402344-6.707031 0-13.304688.460938-19.773438 1.335938-13.953124-8.742188-30.449218-13.804688-48.128906-13.804688-50.136718 0-90.78125 40.644532-90.78125 90.78125 0 17.679688 5.0625 34.175782 13.804688 48.128906-.875 6.46875-1.335938 13.066407-1.335938 19.773438 0 41.671875 17.433594 79.269531 45.402344 105.902344l149.328125 149.328125c38.65625-1.214844 77.300781-3.875 115.90625-7.996094 43.667969-4.660156 78.152344-39.148437 82.8125-82.816406 4.121094-38.601563 6.78125-77.246094 7.996094-115.902344zm0 0" fill="url(#e)"/><path d="m400.878906 275.773438c.875-6.46875 1.335938-13.066407 1.335938-19.773438 0-80.753906-65.460938-146.214844-146.214844-146.214844-6.707031 0-13.304688.460938-19.769531 1.335938-13.953125-8.746094-30.453125-13.804688-48.132813-13.804688-50.136718 0-90.78125 40.640625-90.78125 90.78125 0 17.679688 5.0625 34.175782 13.804688 48.128906-.875 6.46875-1.335938 13.066407-1.335938 19.773438 0 80.753906 65.464844 146.214844 146.21875 146.214844 6.707032 0 13.304688-.460938 19.769532-1.335938 13.953124 8.746094 30.453124 13.804688 48.132812 13.804688 50.136719 0 90.777344-40.640625 90.777344-90.78125 0-17.679688-5.058594-34.175782-13.804688-48.128906zm-78.382812 50.316406c-10.957032 13.066406-25.703125 19.113281-41.804688 22.453125-9.339844 1.9375-18.863281 3.023437-28.40625 2.457031-18.414062-1.089844-36.453125-3.691406-51.878906-15.1875-10.910156-8.128906-18.726562-18.421875-22.363281-31.648438-3.488281-12.675781 3.390625-22.535156 14.117187-24.28125 6.5625-1.066406 13.632813 1.425782 17.832032 7.117188 3.109374 4.214844 4.914062 9.058594 7.125 13.691406 7.03125 14.730469 18.859374 21.332032 34.863281 21.632813 10.644531.199219 20.910156-.808594 30.179687-6.632813 10.554688-6.632812 14.367188-16.160156 10.820313-26.644531-1.984375-5.863281-6.375-9.34375-11.535157-12.015625-10.566406-5.472656-22.273437-7.167969-33.660156-9.929688-16.269531-3.941406-32.476562-7.820312-46.898437-17.117187-23.472657-15.128906-25.695313-47.605469-9.359375-66.421875 9.972656-11.484375 23.023437-16.90625 37.285156-20.078125 8.78125-1.953125 17.734375-2.949219 25.636719-2.542969 15.722656-.230468 29.921875 1.800782 43.113281 8.269532 13.109375 6.425781 23.667969 15.402343 27.804688 30.25 4.046874 14.53125-7.953126 27.4375-22.453126 23.894531-4.605468-1.128907-7.621093-4.53125-10.269531-8.304688-3.121093-4.457031-5.4375-9.402343-8.753906-13.757812-5.792969-7.628907-13.234375-11.964844-22.851563-12.359375-10.214843-.421875-20.445312-1.082032-29.972656 3.996094-3.710937 1.976562-6.972656 4.4375-9.339844 7.824218-5.164062 7.386719-2.917968 16.285156 5.289063 21.84375 8.390625 5.683594 18.105469 7.675782 27.71875 9.964844 17.078125 4.066406 34.394531 7.398438 50.417969 14.941406 14.273437 6.71875 25.234375 16.523438 28.460937 32.824219 3.347657 16.925781.15625 32.320313-11.117187 45.761719zm0 0" fill="#fff"/></svg>