<?xml version="1.0" encoding="iso-8859-1"?>
<!-- Generator: Adobe Illustrator 21.0.0, SVG Export Plug-In . SVG Version: 6.00 Build 0)  -->
<svg xmlns="http://www.w3.org/2000/svg" xmlns:xlink="http://www.w3.org/1999/xlink" version="1.1" id="Capa_1" x="0px" y="0px" viewBox="0 0 512 512" style="enable-background:new 0 0 512 512;" xml:space="preserve" width="512" height="512">
<g>
	<g>
		<rect x="202.997" y="398.171" style="fill:#EDE7E9;" width="47.053" height="52.67"/>
		<rect x="202.997" y="398.171" style="fill:#C7B9BF;" width="47.053" height="22.431"/>
		<path style="fill:#6E82A6;" d="M258.326,450.842h-63.605l-67.993,13.956c-1.824,0.374-3.133,1.979-3.133,3.841v11.121    c0,2.166,1.756,3.921,3.921,3.921h198.014c2.166,0,3.921-1.756,3.921-3.921v-11.121c0-1.862-1.309-3.467-3.133-3.841    L258.326,450.842z"/>
		<path style="fill:#3F5173;" d="M326.319,464.798l-67.993-13.956h-17.487l59.168,13.956c1.587,0.374,2.726,1.979,2.726,3.841    v11.121c0,2.166-1.528,3.921-3.412,3.921h26.21c2.166,0,3.921-1.756,3.921-3.921v-11.121    C329.452,466.777,328.143,465.172,326.319,464.798z"/>
	</g>
	<path style="fill:#6E82A6;" d="M0,101.456v270.248c0,14.617,11.85,26.467,26.467,26.467H426.58   c14.617,0,26.467-11.85,26.467-26.467V101.456c0-14.617-11.85-26.467-26.467-26.467H26.467C11.85,74.989,0,86.839,0,101.456z"/>
	<path style="fill:#FF5579;" d="M41.603,368.764c-6.724,0-12.195-5.471-12.195-12.195V116.591c0-6.725,5.471-12.195,12.195-12.195   h369.842c6.724,0,12.195,5.471,12.195,12.195v239.977c0,6.725-5.471,12.195-12.195,12.195H41.603z"/>
	<path style="fill:#E3E7EB;" d="M63.901,44.666v268.408c0,9.028,7.319,16.347,16.347,16.347h233.648   c9.028,0,16.347-7.319,16.347-16.347V44.666c0-9.028-7.319-16.347-16.347-16.347H80.248C71.22,28.319,63.901,35.638,63.901,44.666z   "/>
	<path style="fill:#C1C8CF;" d="M313.896,28.319h-21.824c9.028,0,16.347,7.319,16.347,16.347v268.408   c0,9.028-7.319,16.347-16.347,16.347h21.824c9.028,0,16.347-7.319,16.347-16.347V44.666   C330.243,35.638,322.924,28.319,313.896,28.319z"/>
	<path style="fill:#30C1FF;" d="M313.896,28.319H80.248c-9.028,0-16.347,7.319-16.347,16.347v51.201h266.342V44.666   C330.243,35.638,322.924,28.319,313.896,28.319z"/>
	<path style="fill:#1591CF;" d="M326.459,34.212c-2.999-3.6-7.512-5.893-12.564-5.893h-21.823   c9.027,0.001,16.345,7.319,16.345,16.347v51.201h21.825V44.666c0-3.186-0.926-6.149-2.502-8.663   c-0.284-0.453-0.588-0.89-0.913-1.311C326.704,34.533,326.588,34.367,326.459,34.212z"/>
	<circle style="fill:#FF5579;" cx="292.214" cy="62.51" r="11.728"/>
	<circle style="fill:#FDCB70;" cx="246.126" cy="62.51" r="11.728"/>
	<circle style="fill:#ADDA4B;" cx="200.037" cy="62.51" r="11.728"/>
	<g>
		<g>
			<path style="fill:#1A1A3A;" d="M156.027,223.775c-0.562,1.364-2.327,1.846-4.093,1.846c-2.006,0-3.771-0.642-4.253-1.846     l-6.179-17.494l-6.099,17.414c-0.481,1.284-2.408,1.926-4.414,1.926c-1.685,0-3.45-0.481-4.012-1.926l-12.358-31.697     c-0.321-0.642-0.401-1.124-0.401-1.525c0-2.487,4.013-4.253,6.741-4.253c1.364,0,2.567,0.562,2.969,1.685l8.024,22.79     l6.019-19.821c0.562-1.846,1.926-2.086,3.531-2.086c1.524,0,2.969,0.241,3.53,2.086l5.938,19.901l8.104-22.87     c0.401-1.043,1.525-1.685,2.97-1.685c2.567,0,6.66,1.766,6.66,4.333c0,0.481-0.08,1.043-0.321,1.444L156.027,223.775z"/>
			<path style="fill:#1A1A3A;" d="M211.638,223.775c-0.562,1.364-2.327,1.846-4.093,1.846c-2.006,0-3.771-0.642-4.253-1.846     l-6.179-17.494l-6.099,17.414c-0.481,1.284-2.408,1.926-4.414,1.926c-1.685,0-3.45-0.481-4.012-1.926l-12.358-31.697     c-0.321-0.642-0.401-1.124-0.401-1.525c0-2.487,4.013-4.253,6.741-4.253c1.364,0,2.567,0.562,2.969,1.685l8.024,22.79     l6.019-19.821c0.562-1.846,1.926-2.086,3.531-2.086c1.524,0,2.969,0.241,3.53,2.086l5.938,19.901l8.104-22.87     c0.401-1.043,1.525-1.685,2.97-1.685c2.567,0,6.66,1.766,6.66,4.333c0,0.481-0.08,1.043-0.321,1.444L211.638,223.775z"/>
			<path style="fill:#1A1A3A;" d="M267.248,223.775c-0.562,1.364-2.327,1.846-4.093,1.846c-2.006,0-3.771-0.642-4.253-1.846     l-6.179-17.494l-6.099,17.414c-0.481,1.284-2.408,1.926-4.414,1.926c-1.685,0-3.45-0.481-4.012-1.926l-12.358-31.697     c-0.321-0.642-0.401-1.124-0.401-1.525c0-2.487,4.013-4.253,6.741-4.253c1.364,0,2.567,0.562,2.969,1.685l8.024,22.79     l6.019-19.821c0.562-1.846,1.926-2.086,3.531-2.086c1.524,0,2.969,0.241,3.53,2.086l5.938,19.901l8.104-22.87     c0.401-1.043,1.525-1.685,2.97-1.685c2.567,0,6.66,1.766,6.66,4.333c0,0.481-0.08,1.043-0.321,1.444L267.248,223.775z"/>
		</g>
	</g>
	<g>
		<polygon style="fill:#75E1FF;" points="218.081,257.437 320.59,310.367 253.631,345.099   "/>
		<polygon style="fill:#45B5D9;" points="320.59,310.367 323.959,349.874 352.147,291.777 218.081,257.437   "/>
		<polygon style="fill:#2487A8;" points="323.959,349.874 290.503,325.974 320.59,310.367   "/>
		<polygon style="fill:#75E1FF;" points="218.081,257.437 393.21,273.071 352.147,291.777   "/>
	</g>
	<path style="fill:#1A1A3A;" d="M462.141,432.252c-3.503,0-6.659-2.426-7.445-5.988c-0.907-4.115,1.692-8.187,5.807-9.095   c4.192-0.925,8.248-2.491,12.056-4.655c3.665-2.08,8.323-0.8,10.405,2.863c2.082,3.664,0.8,8.322-2.863,10.405   c-5.137,2.92-10.624,5.035-16.308,6.29C463.238,432.194,462.686,432.252,462.141,432.252z M431.999,430.679   c-0.699,0-1.41-0.097-2.115-0.3c-5.009-1.442-10.184-3.413-15.383-5.858c-3.813-1.794-5.451-6.339-3.657-10.153   c1.794-3.814,6.338-5.452,10.153-3.657c4.467,2.101,8.878,3.784,13.11,5.003c4.05,1.166,6.388,5.395,5.221,9.444   C438.364,428.503,435.313,430.679,431.999,430.679z M391.809,409.228c-1.608,0-3.229-0.506-4.609-1.554   c-4.082-3.1-8.199-6.486-12.236-10.065c-3.154-2.795-3.445-7.618-0.649-10.772c2.794-3.153,7.618-3.444,10.771-0.648   c3.751,3.324,7.567,6.464,11.343,9.331c3.356,2.549,4.011,7.335,1.462,10.692C396.392,408.188,394.113,409.228,391.809,409.228z    M497.624,405.437c-1.28,0-2.576-0.322-3.768-1.001c-3.662-2.085-4.942-6.744-2.856-10.406c2.169-3.811,3.866-7.948,5.044-12.298   c1.102-4.068,5.292-6.471,9.36-5.37c4.068,1.102,6.472,5.293,5.37,9.36c-1.515,5.592-3.706,10.927-6.513,15.858   C502.856,404.051,500.278,405.437,497.624,405.437z M358.595,377.796c-2.142,0-4.271-0.897-5.781-2.646   c-3.614-4.189-6.949-8.358-9.913-12.39c-2.495-3.396-1.766-8.172,1.63-10.667c3.397-2.496,8.172-1.765,10.668,1.63   c2.728,3.714,5.814,7.569,9.17,11.458c2.753,3.191,2.397,8.009-0.793,10.762C362.135,377.186,360.36,377.796,358.595,377.796z    M504.36,361.118c-3.581,0-6.775-2.532-7.482-6.178c-0.859-4.427-2.207-8.806-4.004-13.016c-1.655-3.876,0.146-8.359,4.021-10.014   c3.881-1.656,8.361,0.147,10.014,4.021c2.221,5.2,3.886,10.617,4.95,16.1c0.804,4.137-1.899,8.142-6.036,8.944   C505.331,361.072,504.842,361.118,504.36,361.118z M482.63,321.634c-1.913,0-3.827-0.714-5.31-2.151   c-3.263-3.162-6.896-6.091-10.798-8.705c-3.501-2.345-4.438-7.085-2.093-10.586c2.346-3.501,7.086-4.439,10.586-2.093   c4.659,3.121,9.009,6.628,12.926,10.425c3.026,2.932,3.102,7.763,0.169,10.79C486.614,320.858,484.623,321.634,482.63,321.634z"/>
</g>















</svg>
